<?xml version="1.0" standalone="no"?>
<!DOCTYPE svg PUBLIC "-//W3C//DTD SVG 1.1//EN" "http://www.w3.org/Graphics/SVG/1.1/DTD/svg11.dtd">
<svg width="10cm" height="10cm" viewBox="0 0 1000 1000" xmlns="http://www.w3.org/2000/svg" version="1.1">
    <title>Example triangle01- simple example of a 'path'</title>
    <desc>A path that draws a triangle</desc>
    <rect x="1" y="1" width="999" height="999" fill="#eadcfc" />
    <path fill="#f5b9e0" opacity="1" d="M 500 500 C 1000 590 617 976 453 804 Q 747 824 582 440 C 785 559 723 697 692 439"/>
    <path fill="#f5b9e0" opacity="1" d="M 500 500 C 590 1000 976 617 804 453 Q 824 747 440 582 C 559 785 697 723 439 692"/>
    <path fill="#f5b9e0" opacity="1" d="M 500 500 C 0 590 383 976 547 804 Q 253 824 418 440 C 215 559 277 697 308 439"/>
    <path fill="#f5b9e0" opacity="1" d="M 500 500 C 590 0 976 383 804 547 Q 824 253 440 418 C 559 215 697 277 439 308"/>
    <path fill="#f5b9e0" opacity="1" d="M 500 500 C 1000 410 617 24 453 196 Q 747 176 582 560 C 785 441 723 303 692 561"/>
    <path fill="#f5b9e0" opacity="1" d="M 500 500 C 410 1000 24 617 196 453 Q 176 747 560 582 C 441 785 303 723 561 692"/>
    <path fill="#f5b9e0" opacity="1" d="M 500 500 C 0 410 383 24 547 196 Q 253 176 418 560 C 215 441 277 303 308 561"/>
    <path fill="#f5b9e0" opacity="1" d="M 500 500 C 410 0 24 383 196 547 Q 176 253 560 418 C 441 215 303 277 561 308"/>
    <path fill="#813bad" opacity="0.4" d="M 500 500 C 804 581 928 671 541 511 C 605 885 777 740 609 755 T 926 931 T 588 747 T 792 845"/>
    <path fill="#813bad" opacity="0.4" d="M 500 500 C 581 804 671 928 511 541 C 885 605 740 777 755 609 T 931 926 T 747 588 T 845 792"/>
    <path fill="#813bad" opacity="0.4" d="M 500 500 C 196 581 72 671 459 511 C 395 885 223 740 391 755 T 74 931 T 412 747 T 208 845"/>
    <path fill="#813bad" opacity="0.4" d="M 500 500 C 581 196 671 72 511 459 C 885 395 740 223 755 391 T 931 74 T 747 412 T 845 208"/>
    <path fill="#813bad" opacity="0.4" d="M 500 500 C 804 419 928 329 541 489 C 605 115 777 260 609 245 T 926 69 T 588 253 T 792 155"/>
    <path fill="#813bad" opacity="0.4" d="M 500 500 C 419 804 329 928 489 541 C 115 605 260 777 245 609 T 69 926 T 253 588 T 155 792"/>
    <path fill="#813bad" opacity="0.4" d="M 500 500 C 196 419 72 329 459 489 C 395 115 223 260 391 245 T 74 69 T 412 253 T 208 155"/>
    <path fill="#813bad" opacity="0.4" d="M 500 500 C 419 196 329 72 489 459 C 115 395 260 223 245 391 T 69 74 T 253 412 T 155 208"/>
    <path fill="#7ebe4b" opacity="0.1" d="M 500 500 C 674 463 430 681 426 760 C 762 935 603 763 624 967 C 606 462 601 468 402 848 C 612 846 645 601 422 635 C 417 888 617 433 414 441 T 635 480 C 411 717 440 828 499 857"/>
    <path fill="#7ebe4b" opacity="0.1" d="M 500 500 C 463 674 681 430 760 426 C 935 762 763 603 967 624 C 462 606 468 601 848 402 C 846 612 601 645 635 422 C 888 417 433 617 441 414 T 480 635 C 717 411 828 440 857 499"/>
    <path fill="#7ebe4b" opacity="0.1" d="M 500 500 C 326 463 570 681 574 760 C 238 935 397 763 376 967 C 394 462 399 468 598 848 C 388 846 355 601 578 635 C 583 888 383 433 586 441 T 365 480 C 589 717 560 828 501 857"/>
    <path fill="#7ebe4b" opacity="0.1" d="M 500 500 C 463 326 681 570 760 574 C 935 238 763 397 967 376 C 462 394 468 399 848 598 C 846 388 601 355 635 578 C 888 583 433 383 441 586 T 480 365 C 717 589 828 560 857 501"/>
    <path fill="#7ebe4b" opacity="0.1" d="M 500 500 C 674 537 430 319 426 240 C 762 65 603 237 624 33 C 606 538 601 532 402 152 C 612 154 645 399 422 365 C 417 112 617 567 414 559 T 635 520 C 411 283 440 172 499 143"/>
    <path fill="#7ebe4b" opacity="0.1" d="M 500 500 C 537 674 319 430 240 426 C 65 762 237 603 33 624 C 538 606 532 601 152 402 C 154 612 399 645 365 422 C 112 417 567 617 559 414 T 520 635 C 283 411 172 440 143 499"/>
    <path fill="#7ebe4b" opacity="0.1" d="M 500 500 C 326 537 570 319 574 240 C 238 65 397 237 376 33 C 394 538 399 532 598 152 C 388 154 355 399 578 365 C 583 112 383 567 586 559 T 365 520 C 589 283 560 172 501 143"/>
    <path fill="#7ebe4b" opacity="0.1" d="M 500 500 C 537 326 319 570 240 574 C 65 238 237 397 33 376 C 538 394 532 399 152 598 C 154 388 399 355 365 578 C 112 583 567 383 559 586 T 520 365 C 283 589 172 560 143 501"/>
</svg>