<?xml version="1.0" standalone="no"?>
<!DOCTYPE svg PUBLIC "-//W3C//DTD SVG 1.1//EN" "http://www.w3.org/Graphics/SVG/1.1/DTD/svg11.dtd">
<svg width="10cm" height="10cm" viewBox="0 0 1000 1000" xmlns="http://www.w3.org/2000/svg" version="1.1">
    <title>Example triangle01- simple example of a 'path'</title>
    <desc>A path that draws a triangle</desc>
    <rect x="1" y="1" width="999" height="999" fill="#f1fde4" />
    <path fill="#a51160" opacity="1" d="M 500 500 T 725 686 Q 890 435 766 981 C 669 729 852 797 483 708"/>
    <path fill="#a51160" opacity="1" d="M 500 500 T 686 725 Q 435 890 981 766 C 729 669 797 852 708 483"/>
    <path fill="#a51160" opacity="1" d="M 500 500 T 275 686 Q 110 435 234 981 C 331 729 148 797 517 708"/>
    <path fill="#a51160" opacity="1" d="M 500 500 T 686 275 Q 435 110 981 234 C 729 331 797 148 708 517"/>
    <path fill="#a51160" opacity="1" d="M 500 500 T 725 314 Q 890 565 766 19 C 669 271 852 203 483 292"/>
    <path fill="#a51160" opacity="1" d="M 500 500 T 314 725 Q 565 890 19 766 C 271 669 203 852 292 483"/>
    <path fill="#a51160" opacity="1" d="M 500 500 T 275 314 Q 110 565 234 19 C 331 271 148 203 517 292"/>
    <path fill="#a51160" opacity="1" d="M 500 500 T 314 275 Q 565 110 19 234 C 271 331 203 148 292 517"/>
    <path fill="#c62575" opacity="0.4" d="M 500 500 C 655 618 560 809 447 656 C 921 458 587 685 809 647 S 864 675 664 428 C 569 936 633 636 869 909 C 888 724 853 449 878 680"/>
    <path fill="#c62575" opacity="0.4" d="M 500 500 C 618 655 809 560 656 447 C 458 921 685 587 647 809 S 675 864 428 664 C 936 569 636 633 909 869 C 724 888 449 853 680 878"/>
    <path fill="#c62575" opacity="0.4" d="M 500 500 C 345 618 440 809 553 656 C 79 458 413 685 191 647 S 136 675 336 428 C 431 936 367 636 131 909 C 112 724 147 449 122 680"/>
    <path fill="#c62575" opacity="0.4" d="M 500 500 C 618 345 809 440 656 553 C 458 79 685 413 647 191 S 675 136 428 336 C 936 431 636 367 909 131 C 724 112 449 147 680 122"/>
    <path fill="#c62575" opacity="0.4" d="M 500 500 C 655 382 560 191 447 344 C 921 542 587 315 809 353 S 864 325 664 572 C 569 64 633 364 869 91 C 888 276 853 551 878 320"/>
    <path fill="#c62575" opacity="0.4" d="M 500 500 C 382 655 191 560 344 447 C 542 921 315 587 353 809 S 325 864 572 664 C 64 569 364 633 91 869 C 276 888 551 853 320 878"/>
    <path fill="#c62575" opacity="0.4" d="M 500 500 C 345 382 440 191 553 344 C 79 542 413 315 191 353 S 136 325 336 572 C 431 64 367 364 131 91 C 112 276 147 551 122 320"/>
    <path fill="#c62575" opacity="0.4" d="M 500 500 C 382 345 191 440 344 553 C 542 79 315 413 353 191 S 325 136 572 336 C 64 431 364 367 91 131 C 276 112 551 147 320 122"/>
    <path fill="#3780e9" opacity="0.1" d="M 500 500 T 877 557 T 683 511 Q 707 819 548 891 T 778 658 S 848 495 468 708 C 857 937 432 848 921 839 C 582 638 514 772 429 409"/>
    <path fill="#3780e9" opacity="0.1" d="M 500 500 T 557 877 T 511 683 Q 819 707 891 548 T 658 778 S 495 848 708 468 C 937 857 848 432 839 921 C 638 582 772 514 409 429"/>
    <path fill="#3780e9" opacity="0.1" d="M 500 500 T 123 557 T 317 511 Q 293 819 452 891 T 222 658 S 152 495 532 708 C 143 937 568 848 79 839 C 418 638 486 772 571 409"/>
    <path fill="#3780e9" opacity="0.1" d="M 500 500 T 557 123 T 511 317 Q 819 293 891 452 T 658 222 S 495 152 708 532 C 937 143 848 568 839 79 C 638 418 772 486 409 571"/>
    <path fill="#3780e9" opacity="0.1" d="M 500 500 T 877 443 T 683 489 Q 707 181 548 109 T 778 342 S 848 505 468 292 C 857 63 432 152 921 161 C 582 362 514 228 429 591"/>
    <path fill="#3780e9" opacity="0.1" d="M 500 500 T 443 877 T 489 683 Q 181 707 109 548 T 342 778 S 505 848 292 468 C 63 857 152 432 161 921 C 362 582 228 514 591 429"/>
    <path fill="#3780e9" opacity="0.1" d="M 500 500 T 123 443 T 317 489 Q 293 181 452 109 T 222 342 S 152 505 532 292 C 143 63 568 152 79 161 C 418 362 486 228 571 591"/>
    <path fill="#3780e9" opacity="0.1" d="M 500 500 T 443 123 T 489 317 Q 181 293 109 452 T 342 222 S 505 152 292 532 C 63 143 152 568 161 79 C 362 418 228 486 591 571"/>
</svg>