<?xml version="1.0" standalone="no"?>
<!DOCTYPE svg PUBLIC "-//W3C//DTD SVG 1.1//EN" "http://www.w3.org/Graphics/SVG/1.1/DTD/svg11.dtd">
<svg width="10cm" height="10cm" viewBox="0 0 1000 1000" xmlns="http://www.w3.org/2000/svg" version="1.1">
    <title>Example triangle01- simple example of a 'path'</title>
    <desc>A path that draws a triangle</desc>
    <rect x="1" y="1" width="999" height="999" fill="#d3d9e3" />
    <path fill="#2a902a" opacity="1" d="M 500 500 C 597 852 495 541 557 998 Q 532 460 491 446 S 621 728 627 420"/>
    <path fill="#2a902a" opacity="1" d="M 500 500 C 852 597 541 495 998 557 Q 460 532 446 491 S 728 621 420 627"/>
    <path fill="#2a902a" opacity="1" d="M 500 500 C 403 852 505 541 443 998 Q 468 460 509 446 S 379 728 373 420"/>
    <path fill="#2a902a" opacity="1" d="M 500 500 C 852 403 541 505 998 443 Q 460 468 446 509 S 728 379 420 373"/>
    <path fill="#2a902a" opacity="1" d="M 500 500 C 597 148 495 459 557 2 Q 532 540 491 554 S 621 272 627 580"/>
    <path fill="#2a902a" opacity="1" d="M 500 500 C 148 597 459 495 2 557 Q 540 532 554 491 S 272 621 580 627"/>
    <path fill="#2a902a" opacity="1" d="M 500 500 C 403 148 505 459 443 2 Q 468 540 509 554 S 379 272 373 580"/>
    <path fill="#2a902a" opacity="1" d="M 500 500 C 148 403 459 505 2 443 Q 540 468 554 509 S 272 379 580 373"/>
    <path fill="#0e45e4" opacity="0.4" d="M 500 500 T 737 710 C 506 620 432 542 497 469 T 476 735 C 679 996 414 417 943 586 Q 866 403 596 468"/>
    <path fill="#0e45e4" opacity="0.4" d="M 500 500 T 710 737 C 620 506 542 432 469 497 T 735 476 C 996 679 417 414 586 943 Q 403 866 468 596"/>
    <path fill="#0e45e4" opacity="0.4" d="M 500 500 T 263 710 C 494 620 568 542 503 469 T 524 735 C 321 996 586 417 57 586 Q 134 403 404 468"/>
    <path fill="#0e45e4" opacity="0.4" d="M 500 500 T 710 263 C 620 494 542 568 469 503 T 735 524 C 996 321 417 586 586 57 Q 403 134 468 404"/>
    <path fill="#0e45e4" opacity="0.4" d="M 500 500 T 737 290 C 506 380 432 458 497 531 T 476 265 C 679 4 414 583 943 414 Q 866 597 596 532"/>
    <path fill="#0e45e4" opacity="0.4" d="M 500 500 T 290 737 C 380 506 458 432 531 497 T 265 476 C 4 679 583 414 414 943 Q 597 866 532 596"/>
    <path fill="#0e45e4" opacity="0.4" d="M 500 500 T 263 290 C 494 380 568 458 503 531 T 524 265 C 321 4 586 583 57 414 Q 134 597 404 532"/>
    <path fill="#0e45e4" opacity="0.4" d="M 500 500 T 290 263 C 380 494 458 568 531 503 T 265 524 C 4 321 583 586 414 57 Q 597 134 532 404"/>
    <path fill="#f6e65e" opacity="0.1" d="M 500 500 Q 576 762 714 511 T 774 700 T 989 847 Q 999 429 700 678 S 699 732 459 855 C 674 897 694 851 747 638 C 566 589 739 449 951 451"/>
    <path fill="#f6e65e" opacity="0.1" d="M 500 500 Q 762 576 511 714 T 700 774 T 847 989 Q 429 999 678 700 S 732 699 855 459 C 897 674 851 694 638 747 C 589 566 449 739 451 951"/>
    <path fill="#f6e65e" opacity="0.1" d="M 500 500 Q 424 762 286 511 T 226 700 T 11 847 Q 1 429 300 678 S 301 732 541 855 C 326 897 306 851 253 638 C 434 589 261 449 49 451"/>
    <path fill="#f6e65e" opacity="0.1" d="M 500 500 Q 762 424 511 286 T 700 226 T 847 11 Q 429 1 678 300 S 732 301 855 541 C 897 326 851 306 638 253 C 589 434 449 261 451 49"/>
    <path fill="#f6e65e" opacity="0.1" d="M 500 500 Q 576 238 714 489 T 774 300 T 989 153 Q 999 571 700 322 S 699 268 459 145 C 674 103 694 149 747 362 C 566 411 739 551 951 549"/>
    <path fill="#f6e65e" opacity="0.1" d="M 500 500 Q 238 576 489 714 T 300 774 T 153 989 Q 571 999 322 700 S 268 699 145 459 C 103 674 149 694 362 747 C 411 566 551 739 549 951"/>
    <path fill="#f6e65e" opacity="0.1" d="M 500 500 Q 424 238 286 489 T 226 300 T 11 153 Q 1 571 300 322 S 301 268 541 145 C 326 103 306 149 253 362 C 434 411 261 551 49 549"/>
    <path fill="#f6e65e" opacity="0.1" d="M 500 500 Q 238 424 489 286 T 300 226 T 153 11 Q 571 1 322 300 S 268 301 145 541 C 103 326 149 306 362 253 C 411 434 551 261 549 49"/>
</svg>