<?xml version="1.0" standalone="no"?>
<!DOCTYPE svg PUBLIC "-//W3C//DTD SVG 1.1//EN" "http://www.w3.org/Graphics/SVG/1.1/DTD/svg11.dtd">
<svg width="10cm" height="10cm" viewBox="0 0 1000 1000" xmlns="http://www.w3.org/2000/svg" version="1.1">
    <title>Example triangle01- simple example of a 'path'</title>
    <desc>A path that draws a triangle</desc>
    <rect x="1" y="1" width="999" height="999" fill="#cef8d3" />
    <path fill="#ce4c87" opacity="1" d="M 500 500 T 413 658 S 732 627 613 776 C 502 747 530 675 431 867"/>
    <path fill="#ce4c87" opacity="1" d="M 500 500 T 658 413 S 627 732 776 613 C 747 502 675 530 867 431"/>
    <path fill="#ce4c87" opacity="1" d="M 500 500 T 587 658 S 268 627 387 776 C 498 747 470 675 569 867"/>
    <path fill="#ce4c87" opacity="1" d="M 500 500 T 658 587 S 627 268 776 387 C 747 498 675 470 867 569"/>
    <path fill="#ce4c87" opacity="1" d="M 500 500 T 413 342 S 732 373 613 224 C 502 253 530 325 431 133"/>
    <path fill="#ce4c87" opacity="1" d="M 500 500 T 342 413 S 373 732 224 613 C 253 502 325 530 133 431"/>
    <path fill="#ce4c87" opacity="1" d="M 500 500 T 587 342 S 268 373 387 224 C 498 253 470 325 569 133"/>
    <path fill="#ce4c87" opacity="1" d="M 500 500 T 342 587 S 373 268 224 387 C 253 498 325 470 133 569"/>
    <path fill="#16555c" opacity="0.4" d="M 500 500 S 560 975 735 659 Q 732 908 660 653 C 504 416 861 561 868 603 C 703 679 682 894 621 477 S 812 983 882 863"/>
    <path fill="#16555c" opacity="0.4" d="M 500 500 S 975 560 659 735 Q 908 732 653 660 C 416 504 561 861 603 868 C 679 703 894 682 477 621 S 983 812 863 882"/>
    <path fill="#16555c" opacity="0.4" d="M 500 500 S 440 975 265 659 Q 268 908 340 653 C 496 416 139 561 132 603 C 297 679 318 894 379 477 S 188 983 118 863"/>
    <path fill="#16555c" opacity="0.4" d="M 500 500 S 975 440 659 265 Q 908 268 653 340 C 416 496 561 139 603 132 C 679 297 894 318 477 379 S 983 188 863 118"/>
    <path fill="#16555c" opacity="0.4" d="M 500 500 S 560 25 735 341 Q 732 92 660 347 C 504 584 861 439 868 397 C 703 321 682 106 621 523 S 812 17 882 137"/>
    <path fill="#16555c" opacity="0.4" d="M 500 500 S 25 560 341 735 Q 92 732 347 660 C 584 504 439 861 397 868 C 321 703 106 682 523 621 S 17 812 137 882"/>
    <path fill="#16555c" opacity="0.4" d="M 500 500 S 440 25 265 341 Q 268 92 340 347 C 496 584 139 439 132 397 C 297 321 318 106 379 523 S 188 17 118 137"/>
    <path fill="#16555c" opacity="0.4" d="M 500 500 S 25 440 341 265 Q 92 268 347 340 C 584 496 439 139 397 132 C 321 297 106 318 523 379 S 17 188 137 118"/>
    <path fill="#00b065" opacity="0.1" d="M 500 500 T 793 786 Q 553 969 734 481 Q 986 507 657 539 T 752 418 S 557 865 403 534 Q 760 630 574 945 T 671 575"/>
    <path fill="#00b065" opacity="0.1" d="M 500 500 T 786 793 Q 969 553 481 734 Q 507 986 539 657 T 418 752 S 865 557 534 403 Q 630 760 945 574 T 575 671"/>
    <path fill="#00b065" opacity="0.1" d="M 500 500 T 207 786 Q 447 969 266 481 Q 14 507 343 539 T 248 418 S 443 865 597 534 Q 240 630 426 945 T 329 575"/>
    <path fill="#00b065" opacity="0.1" d="M 500 500 T 786 207 Q 969 447 481 266 Q 507 14 539 343 T 418 248 S 865 443 534 597 Q 630 240 945 426 T 575 329"/>
    <path fill="#00b065" opacity="0.1" d="M 500 500 T 793 214 Q 553 31 734 519 Q 986 493 657 461 T 752 582 S 557 135 403 466 Q 760 370 574 55 T 671 425"/>
    <path fill="#00b065" opacity="0.1" d="M 500 500 T 214 793 Q 31 553 519 734 Q 493 986 461 657 T 582 752 S 135 557 466 403 Q 370 760 55 574 T 425 671"/>
    <path fill="#00b065" opacity="0.1" d="M 500 500 T 207 214 Q 447 31 266 519 Q 14 493 343 461 T 248 582 S 443 135 597 466 Q 240 370 426 55 T 329 425"/>
    <path fill="#00b065" opacity="0.1" d="M 500 500 T 214 207 Q 31 447 519 266 Q 493 14 461 343 T 582 248 S 135 443 466 597 Q 370 240 55 426 T 425 329"/>
</svg>