<?xml version="1.0" standalone="no"?>
<!DOCTYPE svg PUBLIC "-//W3C//DTD SVG 1.1//EN" "http://www.w3.org/Graphics/SVG/1.1/DTD/svg11.dtd">
<svg width="10cm" height="10cm" viewBox="0 0 1000 1000" xmlns="http://www.w3.org/2000/svg" version="1.1">
    <title>Example triangle01- simple example of a 'path'</title>
    <desc>A path that draws a triangle</desc>
    <rect x="1" y="1" width="999" height="999" fill="#ebddc9" />
    <path fill="#65af71" opacity="1" d="M 500 500 S 616 852 883 788 C 624 489 941 531 917 409 T 996 612" />
    <path fill="#65af71" opacity="1" d="M 500 500 S 852 616 788 883 C 489 624 531 941 409 917 T 612 996" />
    <path fill="#65af71" opacity="1" d="M 500 500 S 384 852 117 788 C 376 489 59 531 83 409 T 4 612" />
    <path fill="#65af71" opacity="1" d="M 500 500 S 852 384 788 117 C 489 376 531 59 409 83 T 612 4" />
    <path fill="#65af71" opacity="1" d="M 500 500 S 616 148 883 212 C 624 511 941 469 917 591 T 996 388" />
    <path fill="#65af71" opacity="1" d="M 500 500 S 148 616 212 883 C 511 624 469 941 591 917 T 388 996" />
    <path fill="#65af71" opacity="1" d="M 500 500 S 384 148 117 212 C 376 511 59 469 83 591 T 4 388" />
    <path fill="#65af71" opacity="1" d="M 500 500 S 148 384 212 117 C 511 376 469 59 591 83 T 388 4" />
    <path fill="#0eb0c6" opacity="0.4"
        d="M 500 500 Q 891 762 564 548 S 765 660 867 970 T 940 927 Q 732 480 455 821 T 981 920" />
    <path fill="#0eb0c6" opacity="0.4"
        d="M 500 500 Q 762 891 548 564 S 660 765 970 867 T 927 940 Q 480 732 821 455 T 920 981" />
    <path fill="#0eb0c6" opacity="0.4"
        d="M 500 500 Q 109 762 436 548 S 235 660 133 970 T 60 927 Q 268 480 545 821 T 19 920" />
    <path fill="#0eb0c6" opacity="0.4"
        d="M 500 500 Q 762 109 548 436 S 660 235 970 133 T 927 60 Q 480 268 821 545 T 920 19" />
    <path fill="#0eb0c6" opacity="0.4"
        d="M 500 500 Q 891 238 564 452 S 765 340 867 30 T 940 73 Q 732 520 455 179 T 981 80" />
    <path fill="#0eb0c6" opacity="0.4"
        d="M 500 500 Q 238 891 452 564 S 340 765 30 867 T 73 940 Q 520 732 179 455 T 80 981" />
    <path fill="#0eb0c6" opacity="0.4"
        d="M 500 500 Q 109 238 436 452 S 235 340 133 30 T 60 73 Q 268 520 545 179 T 19 80" />
    <path fill="#0eb0c6" opacity="0.4"
        d="M 500 500 Q 238 109 452 436 S 340 235 30 133 T 73 60 Q 520 268 179 545 T 80 19" />
    <path fill="#02394d" opacity="0.1"
        d="M 500 500 C 559 559 583 915 688 594 C 739 802 617 485 958 579 Q 570 754 475 806 C 655 665 585 606 455 665 Q 552 407 655 845 C 934 857 920 668 712 688 S 873 853 977 865" />
    <path fill="#02394d" opacity="0.1"
        d="M 500 500 C 559 559 915 583 594 688 C 802 739 485 617 579 958 Q 754 570 806 475 C 665 655 606 585 665 455 Q 407 552 845 655 C 857 934 668 920 688 712 S 853 873 865 977" />
    <path fill="#02394d" opacity="0.1"
        d="M 500 500 C 441 559 417 915 312 594 C 261 802 383 485 42 579 Q 430 754 525 806 C 345 665 415 606 545 665 Q 448 407 345 845 C 66 857 80 668 288 688 S 127 853 23 865" />
    <path fill="#02394d" opacity="0.1"
        d="M 500 500 C 559 441 915 417 594 312 C 802 261 485 383 579 42 Q 754 430 806 525 C 665 345 606 415 665 545 Q 407 448 845 345 C 857 66 668 80 688 288 S 853 127 865 23" />
    <path fill="#02394d" opacity="0.1"
        d="M 500 500 C 559 441 583 85 688 406 C 739 198 617 515 958 421 Q 570 246 475 194 C 655 335 585 394 455 335 Q 552 593 655 155 C 934 143 920 332 712 312 S 873 147 977 135" />
    <path fill="#02394d" opacity="0.1"
        d="M 500 500 C 441 559 85 583 406 688 C 198 739 515 617 421 958 Q 246 570 194 475 C 335 655 394 585 335 455 Q 593 552 155 655 C 143 934 332 920 312 712 S 147 873 135 977" />
    <path fill="#02394d" opacity="0.1"
        d="M 500 500 C 441 441 417 85 312 406 C 261 198 383 515 42 421 Q 430 246 525 194 C 345 335 415 394 545 335 Q 448 593 345 155 C 66 143 80 332 288 312 S 127 147 23 135" />
    <path fill="#02394d" opacity="0.1"
        d="M 500 500 C 441 441 85 417 406 312 C 198 261 515 383 421 42 Q 246 430 194 525 C 335 345 394 415 335 545 Q 593 448 155 345 C 143 66 332 80 312 288 S 147 127 135 23" />
</svg>
