<?xml version="1.0" standalone="no"?>
<!DOCTYPE svg PUBLIC "-//W3C//DTD SVG 1.1//EN" "http://www.w3.org/Graphics/SVG/1.1/DTD/svg11.dtd">
<svg width="10cm" height="10cm" viewBox="0 0 1000 1000" xmlns="http://www.w3.org/2000/svg" version="1.1">
    <title>Example triangle01- simple example of a 'path'</title>
    <desc>A path that draws a triangle</desc>
    <rect x="1" y="1" width="999" height="999" fill="#fcfee4" />
    <path fill="#b363f1" opacity="1" d="M 500 500 C 983 538 713 748 588 566 C 410 809 468 458 912 995 Q 621 869 651 601"/>
    <path fill="#b363f1" opacity="1" d="M 500 500 C 538 983 748 713 566 588 C 809 410 458 468 995 912 Q 869 621 601 651"/>
    <path fill="#b363f1" opacity="1" d="M 500 500 C 17 538 287 748 412 566 C 590 809 532 458 88 995 Q 379 869 349 601"/>
    <path fill="#b363f1" opacity="1" d="M 500 500 C 538 17 748 287 566 412 C 809 590 458 532 995 88 Q 869 379 601 349"/>
    <path fill="#b363f1" opacity="1" d="M 500 500 C 983 462 713 252 588 434 C 410 191 468 542 912 5 Q 621 131 651 399"/>
    <path fill="#b363f1" opacity="1" d="M 500 500 C 462 983 252 713 434 588 C 191 410 542 468 5 912 Q 131 621 399 651"/>
    <path fill="#b363f1" opacity="1" d="M 500 500 C 17 462 287 252 412 434 C 590 191 532 542 88 5 Q 379 131 349 399"/>
    <path fill="#b363f1" opacity="1" d="M 500 500 C 462 17 252 287 434 412 C 191 590 542 532 5 88 Q 131 379 399 349"/>
    <path fill="#67d6de" opacity="0.4" d="M 500 500 C 584 686 780 948 472 1000 C 782 578 977 643 459 805 C 821 646 496 409 462 536 C 815 688 941 780 842 791 T 567 437"/>
    <path fill="#67d6de" opacity="0.4" d="M 500 500 C 686 584 948 780 1000 472 C 578 782 643 977 805 459 C 646 821 409 496 536 462 C 688 815 780 941 791 842 T 437 567"/>
    <path fill="#67d6de" opacity="0.4" d="M 500 500 C 416 686 220 948 528 1000 C 218 578 23 643 541 805 C 179 646 504 409 538 536 C 185 688 59 780 158 791 T 433 437"/>
    <path fill="#67d6de" opacity="0.4" d="M 500 500 C 686 416 948 220 1000 528 C 578 218 643 23 805 541 C 646 179 409 504 536 538 C 688 185 780 59 791 158 T 437 433"/>
    <path fill="#67d6de" opacity="0.4" d="M 500 500 C 584 314 780 52 472 0 C 782 422 977 357 459 195 C 821 354 496 591 462 464 C 815 312 941 220 842 209 T 567 563"/>
    <path fill="#67d6de" opacity="0.4" d="M 500 500 C 314 584 52 780 0 472 C 422 782 357 977 195 459 C 354 821 591 496 464 462 C 312 815 220 941 209 842 T 563 567"/>
    <path fill="#67d6de" opacity="0.4" d="M 500 500 C 416 314 220 52 528 0 C 218 422 23 357 541 195 C 179 354 504 591 538 464 C 185 312 59 220 158 209 T 433 563"/>
    <path fill="#67d6de" opacity="0.4" d="M 500 500 C 314 416 52 220 0 528 C 422 218 357 23 195 541 C 354 179 591 504 464 538 C 312 185 220 59 209 158 T 563 433"/>
    <path fill="#da8822" opacity="0.1" d="M 500 500 C 652 489 521 858 591 889 C 477 657 989 969 784 999 T 400 596 T 742 976 Q 423 714 660 685 C 556 508 488 711 812 425 T 944 527"/>
    <path fill="#da8822" opacity="0.1" d="M 500 500 C 489 652 858 521 889 591 C 657 477 969 989 999 784 T 596 400 T 976 742 Q 714 423 685 660 C 508 556 711 488 425 812 T 527 944"/>
    <path fill="#da8822" opacity="0.1" d="M 500 500 C 348 489 479 858 409 889 C 523 657 11 969 216 999 T 600 596 T 258 976 Q 577 714 340 685 C 444 508 512 711 188 425 T 56 527"/>
    <path fill="#da8822" opacity="0.1" d="M 500 500 C 489 348 858 479 889 409 C 657 523 969 11 999 216 T 596 600 T 976 258 Q 714 577 685 340 C 508 444 711 512 425 188 T 527 56"/>
    <path fill="#da8822" opacity="0.1" d="M 500 500 C 652 511 521 142 591 111 C 477 343 989 31 784 1 T 400 404 T 742 24 Q 423 286 660 315 C 556 492 488 289 812 575 T 944 473"/>
    <path fill="#da8822" opacity="0.1" d="M 500 500 C 511 652 142 521 111 591 C 343 477 31 989 1 784 T 404 400 T 24 742 Q 286 423 315 660 C 492 556 289 488 575 812 T 473 944"/>
    <path fill="#da8822" opacity="0.1" d="M 500 500 C 348 511 479 142 409 111 C 523 343 11 31 216 1 T 600 404 T 258 24 Q 577 286 340 315 C 444 492 512 289 188 575 T 56 473"/>
    <path fill="#da8822" opacity="0.1" d="M 500 500 C 511 348 142 479 111 409 C 343 523 31 11 1 216 T 404 600 T 24 258 Q 286 577 315 340 C 492 444 289 512 575 188 T 473 56"/>
</svg>