<?xml version="1.0" standalone="no"?>
<!DOCTYPE svg PUBLIC "-//W3C//DTD SVG 1.1//EN" "http://www.w3.org/Graphics/SVG/1.1/DTD/svg11.dtd">
<svg width="10cm" height="10cm" viewBox="0 0 1000 1000" xmlns="http://www.w3.org/2000/svg" version="1.1">
    <title>Example triangle01- simple example of a 'path'</title>
    <desc>A path that draws a triangle</desc>
    <rect x="1" y="1" width="999" height="999" fill="#ccfbd4" />
    <path fill="#f55d8c" opacity="1" d="M 500 500 S 908 776 644 818 Q 716 600 534 938 S 889 971 521 470"/>
    <path fill="#f55d8c" opacity="1" d="M 500 500 S 776 908 818 644 Q 600 716 938 534 S 971 889 470 521"/>
    <path fill="#f55d8c" opacity="1" d="M 500 500 S 92 776 356 818 Q 284 600 466 938 S 111 971 479 470"/>
    <path fill="#f55d8c" opacity="1" d="M 500 500 S 776 92 818 356 Q 600 284 938 466 S 971 111 470 479"/>
    <path fill="#f55d8c" opacity="1" d="M 500 500 S 908 224 644 182 Q 716 400 534 62 S 889 29 521 530"/>
    <path fill="#f55d8c" opacity="1" d="M 500 500 S 224 908 182 644 Q 400 716 62 534 S 29 889 530 521"/>
    <path fill="#f55d8c" opacity="1" d="M 500 500 S 92 224 356 182 Q 284 400 466 62 S 111 29 479 530"/>
    <path fill="#f55d8c" opacity="1" d="M 500 500 S 224 92 182 356 Q 400 284 62 466 S 29 111 530 479"/>
    <path fill="#ad817a" opacity="0.4" d="M 500 500 S 644 678 499 518 T 568 881 C 909 645 939 940 628 602 C 893 590 541 424 987 717 Q 673 869 518 466"/>
    <path fill="#ad817a" opacity="0.4" d="M 500 500 S 678 644 518 499 T 881 568 C 645 909 940 939 602 628 C 590 893 424 541 717 987 Q 869 673 466 518"/>
    <path fill="#ad817a" opacity="0.4" d="M 500 500 S 356 678 501 518 T 432 881 C 91 645 61 940 372 602 C 107 590 459 424 13 717 Q 327 869 482 466"/>
    <path fill="#ad817a" opacity="0.4" d="M 500 500 S 678 356 518 501 T 881 432 C 645 91 940 61 602 372 C 590 107 424 459 717 13 Q 869 327 466 482"/>
    <path fill="#ad817a" opacity="0.4" d="M 500 500 S 644 322 499 482 T 568 119 C 909 355 939 60 628 398 C 893 410 541 576 987 283 Q 673 131 518 534"/>
    <path fill="#ad817a" opacity="0.4" d="M 500 500 S 322 644 482 499 T 119 568 C 355 909 60 939 398 628 C 410 893 576 541 283 987 Q 131 673 534 518"/>
    <path fill="#ad817a" opacity="0.4" d="M 500 500 S 356 322 501 482 T 432 119 C 91 355 61 60 372 398 C 107 410 459 576 13 283 Q 327 131 482 534"/>
    <path fill="#ad817a" opacity="0.4" d="M 500 500 S 322 356 482 501 T 119 432 C 355 91 60 61 398 372 C 410 107 576 459 283 13 Q 131 327 534 482"/>
    <path fill="#36dd29" opacity="0.1" d="M 500 500 T 475 983 T 994 520 C 945 441 914 489 640 433 C 967 992 884 544 876 851 C 635 829 782 586 797 420 S 790 782 749 410 T 750 899"/>
    <path fill="#36dd29" opacity="0.1" d="M 500 500 T 983 475 T 520 994 C 441 945 489 914 433 640 C 992 967 544 884 851 876 C 829 635 586 782 420 797 S 782 790 410 749 T 899 750"/>
    <path fill="#36dd29" opacity="0.1" d="M 500 500 T 525 983 T 6 520 C 55 441 86 489 360 433 C 33 992 116 544 124 851 C 365 829 218 586 203 420 S 210 782 251 410 T 250 899"/>
    <path fill="#36dd29" opacity="0.1" d="M 500 500 T 983 525 T 520 6 C 441 55 489 86 433 360 C 992 33 544 116 851 124 C 829 365 586 218 420 203 S 782 210 410 251 T 899 250"/>
    <path fill="#36dd29" opacity="0.1" d="M 500 500 T 475 17 T 994 480 C 945 559 914 511 640 567 C 967 8 884 456 876 149 C 635 171 782 414 797 580 S 790 218 749 590 T 750 101"/>
    <path fill="#36dd29" opacity="0.1" d="M 500 500 T 17 475 T 480 994 C 559 945 511 914 567 640 C 8 967 456 884 149 876 C 171 635 414 782 580 797 S 218 790 590 749 T 101 750"/>
    <path fill="#36dd29" opacity="0.1" d="M 500 500 T 525 17 T 6 480 C 55 559 86 511 360 567 C 33 8 116 456 124 149 C 365 171 218 414 203 580 S 210 218 251 590 T 250 101"/>
    <path fill="#36dd29" opacity="0.1" d="M 500 500 T 17 525 T 480 6 C 559 55 511 86 567 360 C 8 33 456 116 149 124 C 171 365 414 218 580 203 S 218 210 590 251 T 101 250"/>
</svg>