<?xml version="1.0" standalone="no"?>
<!DOCTYPE svg PUBLIC "-//W3C//DTD SVG 1.1//EN" "http://www.w3.org/Graphics/SVG/1.1/DTD/svg11.dtd">
<svg width="10cm" height="10cm" viewBox="0 0 1000 1000" xmlns="http://www.w3.org/2000/svg" version="1.1">
    <title>Example triangle01- simple example of a 'path'</title>
    <desc>A path that draws a triangle</desc>
    <rect x="1" y="1" width="999" height="999" fill="#dbd2da" />
    <path fill="#264dfe" opacity="1" d="M 500 500 Q 576 515 427 415 Q 527 984 461 651 T 684 478"/>
    <path fill="#264dfe" opacity="1" d="M 500 500 Q 515 576 415 427 Q 984 527 651 461 T 478 684"/>
    <path fill="#264dfe" opacity="1" d="M 500 500 Q 424 515 573 415 Q 473 984 539 651 T 316 478"/>
    <path fill="#264dfe" opacity="1" d="M 500 500 Q 515 424 415 573 Q 984 473 651 539 T 478 316"/>
    <path fill="#264dfe" opacity="1" d="M 500 500 Q 576 485 427 585 Q 527 16 461 349 T 684 522"/>
    <path fill="#264dfe" opacity="1" d="M 500 500 Q 485 576 585 427 Q 16 527 349 461 T 522 684"/>
    <path fill="#264dfe" opacity="1" d="M 500 500 Q 424 485 573 585 Q 473 16 539 349 T 316 522"/>
    <path fill="#264dfe" opacity="1" d="M 500 500 Q 485 424 585 573 Q 16 473 349 539 T 522 316"/>
    <path fill="#3825ec" opacity="0.4" d="M 500 500 S 413 567 631 526 C 671 797 489 573 909 530 C 931 537 948 897 717 621 C 536 926 788 876 416 574 C 914 720 837 781 530 962"/>
    <path fill="#3825ec" opacity="0.4" d="M 500 500 S 567 413 526 631 C 797 671 573 489 530 909 C 537 931 897 948 621 717 C 926 536 876 788 574 416 C 720 914 781 837 962 530"/>
    <path fill="#3825ec" opacity="0.4" d="M 500 500 S 587 567 369 526 C 329 797 511 573 91 530 C 69 537 52 897 283 621 C 464 926 212 876 584 574 C 86 720 163 781 470 962"/>
    <path fill="#3825ec" opacity="0.4" d="M 500 500 S 567 587 526 369 C 797 329 573 511 530 91 C 537 69 897 52 621 283 C 926 464 876 212 574 584 C 720 86 781 163 962 470"/>
    <path fill="#3825ec" opacity="0.4" d="M 500 500 S 413 433 631 474 C 671 203 489 427 909 470 C 931 463 948 103 717 379 C 536 74 788 124 416 426 C 914 280 837 219 530 38"/>
    <path fill="#3825ec" opacity="0.4" d="M 500 500 S 433 413 474 631 C 203 671 427 489 470 909 C 463 931 103 948 379 717 C 74 536 124 788 426 416 C 280 914 219 837 38 530"/>
    <path fill="#3825ec" opacity="0.4" d="M 500 500 S 587 433 369 474 C 329 203 511 427 91 470 C 69 463 52 103 283 379 C 464 74 212 124 584 426 C 86 280 163 219 470 38"/>
    <path fill="#3825ec" opacity="0.4" d="M 500 500 S 433 587 474 369 C 203 329 427 511 470 91 C 463 69 103 52 379 283 C 74 464 124 212 426 584 C 280 86 219 163 38 470"/>
    <path fill="#f04e22" opacity="0.1" d="M 500 500 C 572 449 490 847 983 650 T 483 842 S 728 574 581 803 Q 963 959 462 691 T 651 415 S 962 429 678 988 T 888 644"/>
    <path fill="#f04e22" opacity="0.1" d="M 500 500 C 449 572 847 490 650 983 T 842 483 S 574 728 803 581 Q 959 963 691 462 T 415 651 S 429 962 988 678 T 644 888"/>
    <path fill="#f04e22" opacity="0.1" d="M 500 500 C 428 449 510 847 17 650 T 517 842 S 272 574 419 803 Q 37 959 538 691 T 349 415 S 38 429 322 988 T 112 644"/>
    <path fill="#f04e22" opacity="0.1" d="M 500 500 C 449 428 847 510 650 17 T 842 517 S 574 272 803 419 Q 959 37 691 538 T 415 349 S 429 38 988 322 T 644 112"/>
    <path fill="#f04e22" opacity="0.1" d="M 500 500 C 572 551 490 153 983 350 T 483 158 S 728 426 581 197 Q 963 41 462 309 T 651 585 S 962 571 678 12 T 888 356"/>
    <path fill="#f04e22" opacity="0.1" d="M 500 500 C 551 572 153 490 350 983 T 158 483 S 426 728 197 581 Q 41 963 309 462 T 585 651 S 571 962 12 678 T 356 888"/>
    <path fill="#f04e22" opacity="0.1" d="M 500 500 C 428 551 510 153 17 350 T 517 158 S 272 426 419 197 Q 37 41 538 309 T 349 585 S 38 571 322 12 T 112 356"/>
    <path fill="#f04e22" opacity="0.1" d="M 500 500 C 551 428 153 510 350 17 T 158 517 S 426 272 197 419 Q 41 37 309 538 T 585 349 S 571 38 12 322 T 356 112"/>
</svg>