<?xml version="1.0" standalone="no"?>
<!DOCTYPE svg PUBLIC "-//W3C//DTD SVG 1.1//EN" "http://www.w3.org/Graphics/SVG/1.1/DTD/svg11.dtd">
<svg width="10cm" height="10cm" viewBox="0 0 1000 1000" xmlns="http://www.w3.org/2000/svg" version="1.1">
    <title>Example triangle01- simple example of a 'path'</title>
    <desc>A path that draws a triangle</desc>
    <rect x="1" y="1" width="999" height="999" fill="#eaf7e7" />
    <path fill="#a20d5e" opacity="1" d="M 500 500 C 910 727 785 951 781 983 Q 581 673 813 524 Q 443 928 810 810"/>
    <path fill="#a20d5e" opacity="1" d="M 500 500 C 727 910 951 785 983 781 Q 673 581 524 813 Q 928 443 810 810"/>
    <path fill="#a20d5e" opacity="1" d="M 500 500 C 90 727 215 951 219 983 Q 419 673 187 524 Q 557 928 190 810"/>
    <path fill="#a20d5e" opacity="1" d="M 500 500 C 727 90 951 215 983 219 Q 673 419 524 187 Q 928 557 810 190"/>
    <path fill="#a20d5e" opacity="1" d="M 500 500 C 910 273 785 49 781 17 Q 581 327 813 476 Q 443 72 810 190"/>
    <path fill="#a20d5e" opacity="1" d="M 500 500 C 273 910 49 785 17 781 Q 327 581 476 813 Q 72 443 190 810"/>
    <path fill="#a20d5e" opacity="1" d="M 500 500 C 90 273 215 49 219 17 Q 419 327 187 476 Q 557 72 190 190"/>
    <path fill="#a20d5e" opacity="1" d="M 500 500 C 273 90 49 215 17 219 Q 327 419 476 187 Q 72 557 190 190"/>
    <path fill="#fa5644" opacity="0.4" d="M 500 500 Q 543 861 613 690 C 765 401 885 754 543 687 T 802 915 C 790 946 725 970 430 975 Q 464 955 516 589"/>
    <path fill="#fa5644" opacity="0.4" d="M 500 500 Q 861 543 690 613 C 401 765 754 885 687 543 T 915 802 C 946 790 970 725 975 430 Q 955 464 589 516"/>
    <path fill="#fa5644" opacity="0.4" d="M 500 500 Q 457 861 387 690 C 235 401 115 754 457 687 T 198 915 C 210 946 275 970 570 975 Q 536 955 484 589"/>
    <path fill="#fa5644" opacity="0.4" d="M 500 500 Q 861 457 690 387 C 401 235 754 115 687 457 T 915 198 C 946 210 970 275 975 570 Q 955 536 589 484"/>
    <path fill="#fa5644" opacity="0.4" d="M 500 500 Q 543 139 613 310 C 765 599 885 246 543 313 T 802 85 C 790 54 725 30 430 25 Q 464 45 516 411"/>
    <path fill="#fa5644" opacity="0.4" d="M 500 500 Q 139 543 310 613 C 599 765 246 885 313 543 T 85 802 C 54 790 30 725 25 430 Q 45 464 411 516"/>
    <path fill="#fa5644" opacity="0.4" d="M 500 500 Q 457 139 387 310 C 235 599 115 246 457 313 T 198 85 C 210 54 275 30 570 25 Q 536 45 484 411"/>
    <path fill="#fa5644" opacity="0.4" d="M 500 500 Q 139 457 310 387 C 599 235 246 115 313 457 T 85 198 C 54 210 30 275 25 570 Q 45 536 411 484"/>
    <path fill="#519544" opacity="0.1" d="M 500 500 S 401 723 473 851 Q 842 958 572 694 T 818 742 S 445 687 845 834 Q 939 554 461 501 S 973 422 675 629 Q 659 678 438 514"/>
    <path fill="#519544" opacity="0.1" d="M 500 500 S 723 401 851 473 Q 958 842 694 572 T 742 818 S 687 445 834 845 Q 554 939 501 461 S 422 973 629 675 Q 678 659 514 438"/>
    <path fill="#519544" opacity="0.1" d="M 500 500 S 599 723 527 851 Q 158 958 428 694 T 182 742 S 555 687 155 834 Q 61 554 539 501 S 27 422 325 629 Q 341 678 562 514"/>
    <path fill="#519544" opacity="0.1" d="M 500 500 S 723 599 851 527 Q 958 158 694 428 T 742 182 S 687 555 834 155 Q 554 61 501 539 S 422 27 629 325 Q 678 341 514 562"/>
    <path fill="#519544" opacity="0.1" d="M 500 500 S 401 277 473 149 Q 842 42 572 306 T 818 258 S 445 313 845 166 Q 939 446 461 499 S 973 578 675 371 Q 659 322 438 486"/>
    <path fill="#519544" opacity="0.1" d="M 500 500 S 277 401 149 473 Q 42 842 306 572 T 258 818 S 313 445 166 845 Q 446 939 499 461 S 578 973 371 675 Q 322 659 486 438"/>
    <path fill="#519544" opacity="0.1" d="M 500 500 S 599 277 527 149 Q 158 42 428 306 T 182 258 S 555 313 155 166 Q 61 446 539 499 S 27 578 325 371 Q 341 322 562 486"/>
    <path fill="#519544" opacity="0.1" d="M 500 500 S 277 599 149 527 Q 42 158 306 428 T 258 182 S 313 555 166 155 Q 446 61 499 539 S 578 27 371 325 Q 322 341 486 562"/>
</svg>