<?xml version="1.0" standalone="no"?>
<!DOCTYPE svg PUBLIC "-//W3C//DTD SVG 1.1//EN" "http://www.w3.org/Graphics/SVG/1.1/DTD/svg11.dtd">
<svg width="10cm" height="10cm" viewBox="0 0 1000 1000" xmlns="http://www.w3.org/2000/svg" version="1.1">
    <title>Example triangle01- simple example of a 'path'</title>
    <desc>A path that draws a triangle</desc>
    <rect x="1" y="1" width="999" height="999" fill="#f4d6df" />
    <path fill="#d9ea50" opacity="1" d="M 500 500 S 909 669 661 868 C 586 690 831 494 804 415 C 937 401 653 674 752 786"/>
    <path fill="#d9ea50" opacity="1" d="M 500 500 S 669 909 868 661 C 690 586 494 831 415 804 C 401 937 674 653 786 752"/>
    <path fill="#d9ea50" opacity="1" d="M 500 500 S 91 669 339 868 C 414 690 169 494 196 415 C 63 401 347 674 248 786"/>
    <path fill="#d9ea50" opacity="1" d="M 500 500 S 669 91 868 339 C 690 414 494 169 415 196 C 401 63 674 347 786 248"/>
    <path fill="#d9ea50" opacity="1" d="M 500 500 S 909 331 661 132 C 586 310 831 506 804 585 C 937 599 653 326 752 214"/>
    <path fill="#d9ea50" opacity="1" d="M 500 500 S 331 909 132 661 C 310 586 506 831 585 804 C 599 937 326 653 214 752"/>
    <path fill="#d9ea50" opacity="1" d="M 500 500 S 91 331 339 132 C 414 310 169 506 196 585 C 63 599 347 326 248 214"/>
    <path fill="#d9ea50" opacity="1" d="M 500 500 S 331 91 132 339 C 310 414 506 169 585 196 C 599 63 326 347 214 248"/>
    <path fill="#910b28" opacity="0.4" d="M 500 500 C 411 848 940 621 449 813 C 901 804 683 531 993 554 S 792 601 638 450 Q 468 420 795 848 C 958 425 600 861 842 573"/>
    <path fill="#910b28" opacity="0.4" d="M 500 500 C 848 411 621 940 813 449 C 804 901 531 683 554 993 S 601 792 450 638 Q 420 468 848 795 C 425 958 861 600 573 842"/>
    <path fill="#910b28" opacity="0.4" d="M 500 500 C 589 848 60 621 551 813 C 99 804 317 531 7 554 S 208 601 362 450 Q 532 420 205 848 C 42 425 400 861 158 573"/>
    <path fill="#910b28" opacity="0.4" d="M 500 500 C 848 589 621 60 813 551 C 804 99 531 317 554 7 S 601 208 450 362 Q 420 532 848 205 C 425 42 861 400 573 158"/>
    <path fill="#910b28" opacity="0.4" d="M 500 500 C 411 152 940 379 449 187 C 901 196 683 469 993 446 S 792 399 638 550 Q 468 580 795 152 C 958 575 600 139 842 427"/>
    <path fill="#910b28" opacity="0.4" d="M 500 500 C 152 411 379 940 187 449 C 196 901 469 683 446 993 S 399 792 550 638 Q 580 468 152 795 C 575 958 139 600 427 842"/>
    <path fill="#910b28" opacity="0.4" d="M 500 500 C 589 152 60 379 551 187 C 99 196 317 469 7 446 S 208 399 362 550 Q 532 580 205 152 C 42 575 400 139 158 427"/>
    <path fill="#910b28" opacity="0.4" d="M 500 500 C 152 589 379 60 187 551 C 196 99 469 317 446 7 S 399 208 550 362 Q 580 532 152 205 C 575 42 139 400 427 158"/>
    <path fill="#5b3de2" opacity="0.1" d="M 500 500 T 661 999 Q 507 766 403 405 Q 966 481 1000 963 Q 566 869 486 811 Q 514 815 650 719 C 823 942 736 498 770 618 C 666 976 435 565 891 618"/>
    <path fill="#5b3de2" opacity="0.1" d="M 500 500 T 999 661 Q 766 507 405 403 Q 481 966 963 1000 Q 869 566 811 486 Q 815 514 719 650 C 942 823 498 736 618 770 C 976 666 565 435 618 891"/>
    <path fill="#5b3de2" opacity="0.1" d="M 500 500 T 339 999 Q 493 766 597 405 Q 34 481 0 963 Q 434 869 514 811 Q 486 815 350 719 C 177 942 264 498 230 618 C 334 976 565 565 109 618"/>
    <path fill="#5b3de2" opacity="0.1" d="M 500 500 T 999 339 Q 766 493 405 597 Q 481 34 963 0 Q 869 434 811 514 Q 815 486 719 350 C 942 177 498 264 618 230 C 976 334 565 565 618 109"/>
    <path fill="#5b3de2" opacity="0.1" d="M 500 500 T 661 1 Q 507 234 403 595 Q 966 519 1000 37 Q 566 131 486 189 Q 514 185 650 281 C 823 58 736 502 770 382 C 666 24 435 435 891 382"/>
    <path fill="#5b3de2" opacity="0.1" d="M 500 500 T 1 661 Q 234 507 595 403 Q 519 966 37 1000 Q 131 566 189 486 Q 185 514 281 650 C 58 823 502 736 382 770 C 24 666 435 435 382 891"/>
    <path fill="#5b3de2" opacity="0.1" d="M 500 500 T 339 1 Q 493 234 597 595 Q 34 519 0 37 Q 434 131 514 189 Q 486 185 350 281 C 177 58 264 502 230 382 C 334 24 565 435 109 382"/>
    <path fill="#5b3de2" opacity="0.1" d="M 500 500 T 1 339 Q 234 493 595 597 Q 519 34 37 0 Q 131 434 189 514 Q 185 486 281 350 C 58 177 502 264 382 230 C 24 334 435 565 382 109"/>
</svg>